<?xml version="1.0" encoding="UTF-8"?>
<svg id="Layer_2" data-name="Layer 2" xmlns="http://www.w3.org/2000/svg" viewBox="0 0 75.21 64.19">
  <defs>
    <style>
      .cls-1 {
        fill: #be8c91;
      }

      .cls-1, .cls-2, .cls-3 {
        stroke-width: 0px;
      }

      .cls-2 {
        fill: #b2767e;
      }

      .cls-3 {
        fill: #cba4a7;
      }
    </style>
  </defs>
  <g id="Layer_9" data-name="Layer 9">
    <path class="cls-3" d="m38.31,3.87c.95,1.42,4.35,2.78,5.21,4.39,1.27,2.37,6.94,19.97,6.94,19.97l-9.61,9.85,5.36,9.83c-.1,1.6-1.94,4.96-3.66,6.87-.65.72-2.44,2.9-4.95,2.9s-4.3-2.18-4.95-2.9c-1.71-1.91-3.56-5.26-3.66-6.87l5.73-9.7-10.41-9.43s5.67-17.07,7.37-20.52c.81-1.65,4.26-2.98,5.21-4.39h1.41Z"/>
    <g>
      <path class="cls-1" d="m39.16,47.52c1.38.9,2.79,2.73,3.07,4.36.54-1.03,2.85-4.54,1.25-6.19l-2.25-3.67s-2.51,3.17-2.63,4.01.56,1.48.56,1.48Z"/>
      <path class="cls-1" d="m36.04,47.52c-1.38.9-2.79,2.73-3.07,4.36-.54-1.03-2.85-4.54-1.25-6.19l3.23-3.95s1.66,2.07,1.66,3.45-.57,2.33-.57,2.33Z"/>
    </g>
    <g>
      <path class="cls-2" d="m35.28,38.65c-.85.06-1.19,1.54-1.28,2.21-.19,1.55.24,3.02,1.07,4.33,1.26,1.99,2.08,4.23,2.53,6.54.45-2.31,1.27-4.54,2.53-6.54.82-1.31,1.26-2.78,1.07-4.33-.08-.67-.43-2.15-1.28-2.21"/>
      <g>
        <path class="cls-2" d="m37.6,39.11c-2.16-.72-7.87-5.16-9.36-9.98-.79-2.55-.95-5.35.07-7.82.69-1.69,1.82-3.18,2.57-4.85,1.3-2.91,1.38-6.34.2-9.31s-3.58-5.41-6.52-6.64c-.73-.31-2.14-.71-2.32-.39s.79,1.22,1.19,1.84c.59.91,1.19,1.86,1.3,2.94.16,1.66-.54,3.43-1.74,4.58-8.9,8.54-1.47,25.04,1.56,25.34,4.47.45,10.94,4.41,13.04,4.29Z"/>
        <path class="cls-2" d="m36.9,38.96c-4.69-.77-11.07-.84-14.28-.43-2.25.29-3.91-.23-5.72-1.52-1.39-.99-5.44-3.01-5.77-3.42-2.59-3.16-1.99-8.38-1.88-9.72.22-2.66.82-5.45-.06-8.05-.43-1.28-1.45-3.99-1.44-4.56s4.28,2.4,5.67,4.3,2.26,3.94,2.66,6.16c.35,1.95.31,3.96.57,5.92.42,3.15,2.54,6.08,5.47,7.83,2.11,1.26,10.29,1.57,13.25,3"/>
        <path class="cls-2" d="m33.17,38.28c-3.09-.81-10.42,6.63-13.56,13.1-.84,1.74,1.66,4.76,2.4,5.62.86.99,3.5,3.77,2.15,5.22-1.04,1.11-3.64,0-4.34.08s3.23,2.66,5.84,1.69c2.45-.91,2.76-4.15,1.12-5.95-.62-.68-2.01-3.69-1.74-4.55.72-2.23,2.56-4.31,4.27-5.86,1.51-1.37,3.28-2.43,4.7-3.9l2.24-4.75-3.09-.68Z"/>
        <path class="cls-2" d="m28.7,39.68c-1.59.68-3.46,1.66-4.89,2.62-2.07,1.39-4.09,2.87-6.19,4.24-1.19.78-2.31,1.67-3.5,2.44-.83.54-1.51.87-2.52.86-1.82-.02-3.6-.31-5.39-.68-.81-.16-1.72-.33-2.55-.28-.78.04-1.55.55-2.27.83-.45.17-1.4.52-1.4-.25,0-2.26,8.64-6.73,12.12-8.2,3.9-1.65,9.33-2.37,12.43-2.9s9.41-.14,9.41-.14l-5.26,1.46Z"/>
      </g>
      <g>
        <path class="cls-2" d="m37.6,39.11c2.16-.72,7.87-5.16,9.36-9.98.79-2.55.95-5.35-.07-7.82-.69-1.69-1.82-3.18-2.57-4.85-1.3-2.91-1.38-6.34-.2-9.31s3.58-5.41,6.52-6.64c.73-.31,2.14-.71,2.32-.39s-.79,1.22-1.19,1.84c-.59.91-1.19,1.86-1.3,2.94-.16,1.66.54,3.43,1.74,4.58,8.9,8.54,1.47,25.04-1.56,25.34-4.47.45-10.94,4.41-13.04,4.29Z"/>
        <path class="cls-2" d="m38.31,38.96c4.69-.77,11.07-.84,14.28-.43,2.25.29,3.91-.23,5.72-1.52,1.39-.99,5.44-3.01,5.77-3.42,2.59-3.16,1.99-8.38,1.88-9.72-.22-2.66-.82-5.45.06-8.05.43-1.28,1.45-3.99,1.44-4.56s-4.28,2.4-5.67,4.3-2.26,3.94-2.66,6.16c-.35,1.95-.31,3.96-.57,5.92-.42,3.15-2.54,6.08-5.47,7.83-2.11,1.26-10.29,1.57-13.25,3"/>
        <path class="cls-2" d="m41.19,43.71c1.42,1.48,3.19,2.54,4.7,3.9,1.71,1.54,3.55,3.63,4.27,5.86.27.86-1.12,3.87-1.74,4.55-1.64,1.8-1.33,5.04,1.12,5.95,2.61.97,6.55-1.61,5.84-1.69s-3.3,1.03-4.34-.08c-1.35-1.44,1.3-4.23,2.15-5.22.74-.85,3.24-3.87,2.4-5.62-3.13-6.47-10.47-13.91-13.56-13.1l-2.87.37,2.03,5.06Z"/>
        <path class="cls-2" d="m50.65,38.36c3.43.29,8.53,1.24,12.43,2.9,3.47,1.47,12.12,5.94,12.12,8.2,0,.76-.95.42-1.4.25-.72-.28-1.49-.79-2.27-.83-.83-.04-1.74.12-2.55.28-1.79.36-3.57.65-5.39.68-1,.01-1.69-.32-2.52-.86-1.19-.77-2.31-1.66-3.5-2.44-2.1-1.37-4.12-2.85-6.19-4.24-1.43-.96-3.3-1.94-4.89-2.62l-3.42-1.4s4.14-.2,7.57.08Z"/>
      </g>
      <path class="cls-2" d="m37.6,39.11c-1.81-.64-3.3-2.2-4.14-3.86-2.53-4.99-1.63-10.99-.09-16.37,4.23-14.82,3.68-17.59,4.23-17.59.55,0,0,2.77,4.23,17.59,1.54,5.38,2.45,11.39-.09,16.37-.84,1.66-2.33,3.22-4.14,3.86"/>
    </g>
  </g>
</svg>